#tb 0: 1/25
0,          0,          0,        1,   152064, 0xb4e6c735
0,          1,          1,        1,   152064, 0xb4e6c735
0,          2,          2,        1,   152064, 0xb4e6c735
0,          3,          3,        1,   152064, 0xb4e6c735
0,          4,          4,        1,   152064, 0xb4e6c735
0,          5,          5,        1,   152064, 0xb4e6c735
0,          6,          6,        1,   152064, 0x54bae320
0,          7,          7,        1,   152064, 0x53b60b7e
0,          8,          8,        1,   152064, 0x8bed0304
0,          9,          9,        1,   152064, 0x509c4b78
0,         10,         10,        1,   152064, 0x4cf869a4
0,         11,         11,        1,   152064, 0x958b7c66
0,         12,         12,        1,   152064, 0x45841fbf
0,         13,         13,        1,   152064, 0xcfee57ea
0,         14,         14,        1,   152064, 0x979ff709
0,         15,         15,        1,   152064, 0xf7ffd5e2
0,         16,         16,        1,   152064, 0xc42f4370
0,         17,         17,        1,   152064, 0x71ae098f
0,         18,         18,        1,   152064, 0x64146a42
0,         19,         19,        1,   152064, 0xdb3068fd
0,         20,         20,        1,   152064, 0xfc7bf570
0,         21,         21,        1,   152064, 0x9dc72412
0,         22,         22,        1,   152064, 0x445d1d59
0,         23,         23,        1,   152064, 0x2f2768ef
0,         24,         24,        1,   152064, 0xce09f9d6
0,         25,         25,        1,   152064, 0x95579936
0,         26,         26,        1,   152064, 0x43d796b5
0,         27,         27,        1,   152064, 0xd780d887
0,         28,         28,        1,   152064, 0x76d2a455
0,         29,         29,        1,   152064, 0x6dc3650e
0,         30,         30,        1,   152064, 0x0f9d6aca
0,         31,         31,        1,   152064, 0x11446a9b
0,         32,         32,        1,   152064, 0x00be684c
0,         33,         33,        1,   152064, 0xe5f9ee52
0,         34,         34,        1,   152064, 0x21ecafb8
0,         35,         35,        1,   152064, 0xd42c962c
0,         36,         36,        1,   152064, 0xe00a270d
0,         37,         37,        1,   152064, 0xc1b53878
0,         38,         38,        1,   152064, 0xfc4e28dd
0,         39,         39,        1,   152064, 0x9c574e39
0,         40,         40,        1,   152064, 0xdd25cf9d
0,         41,         41,        1,   152064, 0x32959e70
0,         42,         42,        1,   152064, 0xac6498d5
0,         43,         43,        1,   152064, 0xcd595d21
0,         44,         44,        1,   152064, 0x2953ff74
0,         45,         45,        1,   152064, 0xb4e6c735
0,         46,         46,        1,   152064, 0xb4e6c735
0,         47,         47,        1,   152064, 0xb4e6c735
0,         48,         48,        1,   152064, 0xb4e6c735
0,         49,         49,        1,   152064, 0xb4e6c735
